<svg xmlns="http://www.w3.org/2000/svg" direction="ltr" width="96" height="78" viewBox="3938 557 96 78" stroke-linecap="round" stroke-linejoin="round" data-color-mode="light" class="tl-container tl-theme__force-sRGB tl-theme__light" style="background-color: transparent;"><defs/><g transform="matrix(1, 0, 0, 1, 3950, 560)" opacity="1"><path stroke-width="3.5" d="M 0.1881 35.3373 C -0.7256 14.6418 14.9445 -1.0283 34.2744 -1.0283 C 53.2153 -0.6947 68.8853 14.9753 68.8853 34.3053 C 70.4342 53.9701 54.7641 69.6401 35.4342 69.6401 C 15.8582 70.3373 0.1881 54.6673 0.1881 35.3373 M 0.8336 35.2712 C -0.8521 14.8885 14.8179 -0.7815 34.1479 -0.7815 C 54.9246 0.8698 70.5946 16.5399 70.5946 35.8698 C 69.819 55.0533 54.149 70.7233 34.819 70.7233 C 16.5037 70.2712 0.8336 54.6011 0.8336 35.2712" fill="none" stroke="#1d1d1d"/></g><g transform="matrix(1, 0, 0, 1, 3940, 590)" opacity="1"><path stroke-width="3.5" d="M 0 0 L 90 0 M 0 0 L 90 0" transform="scale(1)" stroke="#1d1d1d" fill="none"/></g><g transform="matrix(1, 0, 0, 1, 3940, 600)" opacity="1"><path stroke-width="3.5" d="M 0 0 L 90 0 M 0 0 L 90 0" transform="scale(1)" stroke="#1d1d1d" fill="none"/></g></svg>